<?xml version="1.0" encoding="utf-8"?>
<!-- Generator: Adobe Illustrator 23.0.3, SVG Export Plug-In . SVG Version: 6.00 Build 0)  -->
<svg version="1.1" id="Layer_1" xmlns="http://www.w3.org/2000/svg" xmlns:xlink="http://www.w3.org/1999/xlink" x="0px" y="0px"
	 viewBox="0 0 160.2 34.2" style="enable-background:new 0 0 160.2 34.2;" xml:space="preserve">
<style type="text/css">
	.st0{fill:#333333;}
</style>
<g>
	<g>
		<path class="st0" d="M42.1,10.9c0.1,0.1,0.1,0.5,0.1,1.1s0,1-0.1,1.2C41,14,39.6,14.3,38,14.3c-2.2,0-3.9-0.6-5.2-2
			c-1.3-1.3-2-2.9-2-4.8s0.7-3.5,2-4.8c1.3-1.3,3.1-2,5.2-2c1.6,0,3,0.4,4.1,1.1C42.2,2,42.2,2.4,42.2,3s0,1-0.1,1.1
			c-1.3-0.8-2.7-1.3-3.9-1.3c-1.3,0-2.5,0.4-3.4,1.3c-0.9,0.9-1.3,2-1.3,3.3s0.5,2.5,1.3,3.4c0.9,0.9,2,1.3,3.4,1.3
			C39.4,12.2,40.8,11.7,42.1,10.9z"/>
		<path class="st0" d="M56.1,2.7C57.4,4,58,5.6,58,7.5s-0.6,3.5-1.9,4.8s-2.9,2-5,2c-2,0-3.6-0.7-4.9-2s-1.9-2.9-1.9-4.8
			s0.6-3.5,1.9-4.8s2.9-2,4.9-2C53.2,0.7,54.8,1.4,56.1,2.7z M48.2,4.2c-0.8,0.9-1.2,2-1.2,3.3s0.4,2.5,1.2,3.4
			c0.8,0.9,1.8,1.3,3,1.3s2.2-0.4,3-1.3c0.8-0.9,1.2-2,1.2-3.4S55,5,54.2,4.2s-1.8-1.3-3-1.3S49,3.3,48.2,4.2z"/>
		<path class="st0" d="M76.3,14c-0.8,0.2-1.7,0.2-2.5,0l-1.9-8.4l-3,8.4c-0.7,0.1-1.4,0.1-2.1,0l-3-8.4L61.9,14
			c-0.8,0.2-1.7,0.2-2.5,0l3.1-13c0.7-0.1,1.5-0.1,2.2,0l3.2,8.9L71,1c0.7-0.1,1.5-0.1,2.2,0L76.3,14z"/>
		<path class="st0" d="M83.8,1c1.5,0,2.6,0.4,3.5,1.2s1.3,1.8,1.3,3.1s-0.4,2.3-1.3,3.1s-2.1,1.2-3.5,1.2h-2.3V14
			c-0.9,0.2-1.7,0.2-2.6,0V1H83.8z M83.8,7.5c0.7,0,1.2-0.2,1.6-0.6S86,6,86,5.3c0-0.7-0.2-1.2-0.6-1.6s-0.9-0.6-1.6-0.6h-2.3v4.3
			C81.5,7.5,83.8,7.5,83.8,7.5z"/>
		<path class="st0" d="M100.1,11.9c0.2,0.7,0.2,1.4,0,2.2h-8.5V1c0.9-0.2,1.7-0.2,2.6,0v10.8H100.1z"/>
		<path class="st0" d="M115.2,14c-0.9,0.2-1.8,0.2-2.7,0l-1.1-2.9h-5.2l-1.1,2.9c-0.9,0.2-1.8,0.2-2.7,0l5.3-13
			c0.7-0.1,1.4-0.1,2.2,0L115.2,14z M110.6,9l-1.8-4.6L107,9H110.6z"/>
		<path class="st0" d="M120.4,14c-0.9,0.2-1.7,0.2-2.6,0V1c0.9-0.2,1.7-0.2,2.6,0V14z"/>
		<path class="st0" d="M135.7,14c-0.7,0.1-1.4,0.1-2,0l-6.8-8.6V14c-0.9,0.2-1.7,0.2-2.6,0V1c0.7-0.1,1.4-0.1,2,0l6.8,8.6V1
			c0.9-0.2,1.7-0.2,2.6,0L135.7,14L135.7,14z"/>
		<path class="st0" d="M148.9,1c0.1,0.7,0.1,1.4,0,2.2h-3.8V14c-0.9,0.2-1.7,0.2-2.6,0V3.2h-3.8c-0.1-0.7-0.1-1.4,0-2.2
			C138.7,1,148.9,1,148.9,1z"/>
		<path class="st0" d="M159.3,1.8c0.1,0.2,0.1,0.6,0.1,1.3s0,1.1-0.1,1.2c-1.4-0.9-2.6-1.4-3.6-1.4c-0.6,0-1.1,0.1-1.4,0.4
			s-0.5,0.7-0.5,1.1c0,0.5,0.2,0.8,0.6,1.1s1.1,0.5,2.1,0.8c0.5,0.2,1,0.3,1.4,0.5c0.4,0.2,0.8,0.4,1.2,0.7s0.7,0.7,0.9,1.1
			c0.2,0.5,0.3,1,0.3,1.6c0,1.3-0.4,2.2-1.3,2.9s-2,1-3.3,1c-1.5,0-2.8-0.4-4-1.1c-0.1-0.2-0.1-0.6-0.1-1.3s0-1.1,0.1-1.2
			c1.4,0.9,2.7,1.4,3.9,1.4c0.7,0,1.2-0.1,1.6-0.4s0.6-0.7,0.6-1.2c0-0.5-0.2-0.9-0.6-1.1s-1.1-0.5-2.2-0.9c-0.5-0.2-1-0.4-1.3-0.5
			c-0.4-0.2-0.8-0.4-1.1-0.7s-0.7-0.7-0.9-1.1c-0.2-0.4-0.3-0.9-0.3-1.5c0-1.1,0.4-2.1,1.2-2.8s1.9-1.2,3.3-1.2
			C157,0.7,158.2,1.1,159.3,1.8z"/>
		<path class="st0" d="M37.9,18c1.2,0,2.2,0.3,3,0.9c0.8,0.6,1.2,1.4,1.2,2.4c0,1.4-0.6,2.3-1.8,2.9c0.7,0.3,1.2,0.7,1.6,1.2
			s0.6,1.2,0.6,1.9c0,1.1-0.4,2-1.2,2.7c-0.8,0.6-1.9,1-3.2,1h-5.5V18H37.9z M35.1,23.5h2.6c0.5,0,1-0.1,1.3-0.4s0.5-0.7,0.5-1.2
			c0-0.5-0.2-1-0.5-1.2c-0.3-0.3-0.8-0.4-1.3-0.4h-2.6C35.1,20.2,35.1,23.5,35.1,23.5z M35.1,28.9h2.7c0.6,0,1.1-0.2,1.5-0.5
			s0.5-0.8,0.5-1.3c0-0.5-0.2-1-0.5-1.3c-0.3-0.3-0.8-0.5-1.5-0.5h-2.7V28.9z"/>
		<path class="st0" d="M56.4,19.7c1.3,1.3,1.9,2.9,1.9,4.8s-0.6,3.5-1.9,4.8s-2.9,2-5,2c-2,0-3.6-0.7-4.9-2s-1.9-2.9-1.9-4.8
			s0.6-3.5,1.9-4.8s2.9-2,4.9-2C53.5,17.7,55.1,18.4,56.4,19.7z M48.4,21.2c-0.8,0.9-1.2,2-1.2,3.4s0.4,2.5,1.2,3.4
			c0.8,0.9,1.8,1.3,3,1.3s2.2-0.4,3-1.3s1.2-2,1.2-3.4s-0.4-2.5-1.2-3.4s-1.8-1.3-3-1.3S49.2,20.3,48.4,21.2z"/>
		<path class="st0" d="M71.8,31c-0.9,0.2-1.8,0.2-2.7,0L68,28.1h-5.2L61.6,31c-0.9,0.2-1.8,0.2-2.7,0l5.3-13c0.7-0.1,1.4-0.1,2.2,0
			L71.8,31z M67.1,26l-1.8-4.6L63.5,26H67.1z"/>
		<path class="st0" d="M79,18c1.5,0,2.6,0.4,3.5,1.2s1.3,1.8,1.3,3.1c0,0.9-0.2,1.7-0.7,2.4c-0.5,0.7-1.2,1.2-2,1.5l3.3,4.9
			c-0.9,0.2-1.9,0.2-2.8,0l-3.1-4.5h-1.9V31c-0.9,0.2-1.7,0.2-2.6,0V18H79z M76.5,24.3H79c0.7,0,1.2-0.2,1.6-0.5
			c0.4-0.4,0.6-0.9,0.6-1.5s-0.2-1.1-0.6-1.5s-0.9-0.6-1.6-0.6h-2.5V24.3z"/>
		<path class="st0" d="M91.8,18c2.1,0,3.8,0.6,5,1.8s1.9,2.8,1.9,4.7s-0.6,3.4-1.9,4.7s-2.9,1.8-5,1.8h-4.7V18H91.8z M91.8,28.9
			c1.3,0,2.3-0.4,3.1-1.2s1.2-1.8,1.2-3.2s-0.4-2.4-1.2-3.2s-1.8-1.2-3.1-1.2h-2.1v8.7H91.8z"/>
	</g>
</g>
<g>
	<path class="st0" d="M104.8,21.2h-1.2v2.1h-1.1v-5.4h2.3c0.7,0,1.3,0.1,1.7,0.4s0.6,0.7,0.6,1.2c0,0.4-0.1,0.7-0.3,0.9
		c-0.2,0.3-0.5,0.4-0.9,0.6l1.4,2.3v0h-1.2L104.8,21.2z M103.6,20.5h1.1c0.4,0,0.7-0.1,0.9-0.2s0.3-0.4,0.3-0.7
		c0-0.3-0.1-0.5-0.3-0.7s-0.5-0.2-0.9-0.3h-1.2L103.6,20.5L103.6,20.5z"/>
	<path class="st0" d="M113.1,20.9h-2.6v1.7h3.1v0.8h-4.2v-5.4h4.2v0.8h-3v1.5h2.6V20.9z"/>
	<path class="st0" d="M119.1,21.9c0-0.2-0.1-0.4-0.3-0.5c-0.2-0.1-0.6-0.3-1.1-0.4s-0.9-0.3-1.2-0.4c-0.6-0.3-0.9-0.7-0.9-1.2
		c0-0.4,0.2-0.8,0.6-1.1s1-0.4,1.6-0.4c0.4,0,0.8,0.1,1.2,0.2s0.6,0.3,0.8,0.6s0.3,0.5,0.3,0.9H119c0-0.3-0.1-0.5-0.3-0.7
		s-0.5-0.2-0.9-0.2c-0.4,0-0.7,0.1-0.8,0.2c-0.2,0.1-0.3,0.3-0.3,0.5c0,0.2,0.1,0.4,0.3,0.5s0.6,0.3,1.1,0.4s0.9,0.3,1.2,0.4
		c0.3,0.2,0.5,0.3,0.7,0.5s0.2,0.5,0.2,0.7c0,0.5-0.2,0.8-0.6,1.1s-1,0.4-1.7,0.4c-0.5,0-0.9-0.1-1.3-0.2s-0.7-0.4-0.9-0.6
		c-0.2-0.3-0.3-0.6-0.3-0.9h1.1c0,0.3,0.1,0.5,0.4,0.7s0.6,0.3,1,0.3c0.4,0,0.7-0.1,0.9-0.2C119,22.3,119.1,22.1,119.1,21.9z"/>
	<path class="st0" d="M127.5,20.7c0,0.5-0.1,1-0.3,1.4s-0.5,0.7-0.9,0.9c-0.4,0.2-0.9,0.3-1.4,0.3s-1-0.1-1.4-0.3
		c-0.4-0.2-0.7-0.5-0.9-0.9s-0.3-0.9-0.3-1.4v-0.3c0-0.5,0.1-1,0.3-1.4c0.2-0.4,0.5-0.7,0.9-0.9c0.4-0.2,0.9-0.3,1.4-0.3
		s1,0.1,1.4,0.3c0.4,0.2,0.7,0.5,0.9,0.9s0.3,0.9,0.3,1.4L127.5,20.7L127.5,20.7z M126.4,20.4c0-0.6-0.1-1.1-0.4-1.4
		c-0.3-0.3-0.7-0.5-1.1-0.5c-0.5,0-0.9,0.2-1.1,0.5s-0.4,0.8-0.4,1.4v0.3c0,0.6,0.1,1.1,0.4,1.4c0.3,0.3,0.7,0.5,1.1,0.5
		s0.9-0.2,1.1-0.5c0.3-0.3,0.4-0.8,0.4-1.4C126.4,20.7,126.4,20.4,126.4,20.4z"/>
	<path class="st0" d="M131,22.6h2.9v0.8h-4v-5.4h1.1L131,22.6L131,22.6z"/>
	<path class="st0" d="M137.7,22.1l1.6-4.3h1.2l-2.3,5.4h-1.1l-2.3-5.4h1.2L137.7,22.1z"/>
	<path class="st0" d="M143.7,23.3h-1.1v-5.4h1.1V23.3z"/>
	<path class="st0" d="M151.4,23.3h-1.1l-2.9-3.9v3.9h-1.1v-5.4h1.1l2.9,3.9v-3.9h1.1V23.3z"/>
	<path class="st0" d="M158.9,22.6c-0.2,0.3-0.6,0.5-1,0.6s-0.9,0.2-1.4,0.2c-0.5,0-1-0.1-1.4-0.3s-0.7-0.5-1-0.9
		c-0.2-0.4-0.3-0.8-0.4-1.4v-0.4c0-0.8,0.2-1.5,0.7-1.9c0.5-0.5,1.1-0.7,1.9-0.7c0.7,0,1.3,0.1,1.7,0.5c0.4,0.3,0.7,0.7,0.8,1.3
		h-1.1c-0.1-0.6-0.6-1-1.3-1c-0.5,0-0.9,0.1-1.1,0.5s-0.4,0.8-0.4,1.3v0.4c0,0.6,0.1,1,0.4,1.4c0.3,0.3,0.7,0.5,1.2,0.5
		c0.6,0,1-0.1,1.2-0.3v-1.1h-1.3v-0.7h2.4V22.6z"/>
	<path class="st0" d="M105.7,29.9c0-0.2-0.1-0.4-0.3-0.5c-0.2-0.1-0.6-0.3-1.1-0.4s-0.9-0.3-1.2-0.4c-0.6-0.3-0.9-0.7-0.9-1.2
		c0-0.4,0.2-0.8,0.6-1.1s1-0.4,1.6-0.4c0.4,0,0.8,0.1,1.2,0.2s0.6,0.3,0.8,0.6s0.3,0.5,0.3,0.9h-1.1c0-0.3-0.1-0.5-0.3-0.7
		s-0.5-0.2-0.9-0.2c-0.4,0-0.7,0.1-0.8,0.2c-0.2,0.1-0.3,0.3-0.3,0.5c0,0.2,0.1,0.4,0.3,0.5s0.6,0.3,1.1,0.4s0.9,0.3,1.2,0.4
		c0.3,0.2,0.5,0.3,0.7,0.5s0.2,0.5,0.2,0.7c0,0.5-0.2,0.8-0.6,1.1s-1,0.4-1.7,0.4c-0.5,0-0.9-0.1-1.3-0.2s-0.7-0.3-0.9-0.6
		c-0.2-0.3-0.3-0.6-0.3-0.9h1.1c0,0.3,0.1,0.5,0.4,0.7c0.2,0.2,0.6,0.3,1,0.3c0.4,0,0.7-0.1,0.9-0.2
		C105.6,30.3,105.7,30.1,105.7,29.9z"/>
	<path class="st0" d="M110,31.3h-1.1v-5.4h1.1V31.3z"/>
	<path class="st0" d="M117.7,31.3h-1.1l-2.8-3.9v3.9h-1.1v-5.4h1.1l2.9,3.9v-3.9h1.1V31.3z"/>
	<path class="st0" d="M125.2,29.5c-0.1,0.6-0.3,1-0.8,1.4s-1,0.5-1.8,0.5c-0.5,0-1-0.1-1.3-0.3c-0.4-0.2-0.7-0.5-0.9-0.9
		s-0.3-0.8-0.3-1.3v-0.5c0-0.5,0.1-1,0.3-1.4s0.5-0.7,0.9-0.9s0.9-0.3,1.4-0.3c0.7,0,1.3,0.2,1.7,0.5s0.7,0.8,0.8,1.4H124
		c-0.1-0.4-0.2-0.7-0.4-0.9c-0.2-0.2-0.5-0.3-0.9-0.3c-0.5,0-0.8,0.1-1.1,0.5c-0.3,0.3-0.4,0.7-0.4,1.3v0.5c0,0.6,0.1,1,0.4,1.3
		c0.3,0.3,0.6,0.5,1.1,0.5c0.4,0,0.8-0.1,1-0.3s0.4-0.4,0.4-0.8L125.2,29.5L125.2,29.5z"/>
	<path class="st0" d="M131.1,28.9h-2.6v1.7h3.1v0.8h-4.2v-5.4h4.2v0.8h-3v1.5h2.6L131.1,28.9L131.1,28.9z"/>
	<path class="st0" d="M140.3,31.3H136v-0.6l2.1-2c0.3-0.3,0.5-0.5,0.7-0.7c0.1-0.2,0.2-0.4,0.2-0.6c0-0.3-0.1-0.5-0.3-0.6
		s-0.4-0.2-0.7-0.2c-0.4,0-0.6,0.1-0.8,0.3s-0.3,0.4-0.3,0.7h-1.1c0-0.3,0.1-0.6,0.3-0.9c0.2-0.3,0.4-0.5,0.8-0.6
		c0.3-0.1,0.7-0.2,1.1-0.2c0.6,0,1.1,0.1,1.5,0.4s0.5,0.6,0.5,1.1c0,0.3-0.1,0.6-0.3,0.9c-0.2,0.3-0.5,0.6-0.9,1l-1.6,1.4h3V31.3z"
		/>
	<path class="st0" d="M146.4,29c0,0.8-0.2,1.4-0.5,1.8c-0.3,0.4-0.9,0.6-1.6,0.6c-0.7,0-1.2-0.2-1.6-0.6c-0.4-0.4-0.5-1-0.5-1.7
		v-0.9c0-0.8,0.2-1.4,0.5-1.8c0.3-0.4,0.9-0.6,1.6-0.6c0.7,0,1.2,0.2,1.6,0.6c0.3,0.4,0.5,1,0.5,1.7L146.4,29L146.4,29z M145.3,28
		c0-0.5-0.1-0.9-0.3-1.1c-0.2-0.2-0.4-0.4-0.8-0.4c-0.4,0-0.6,0.1-0.8,0.3s-0.3,0.6-0.3,1.1v1.2c0,0.5,0.1,0.9,0.3,1.1
		s0.4,0.4,0.8,0.4c0.3,0,0.6-0.1,0.8-0.3c0.2-0.2,0.3-0.6,0.3-1.1L145.3,28L145.3,28z"/>
	<path class="st0" d="M152.6,29c0,0.8-0.2,1.4-0.5,1.8c-0.3,0.4-0.9,0.6-1.6,0.6c-0.7,0-1.2-0.2-1.6-0.6c-0.4-0.4-0.5-1-0.5-1.7
		v-0.9c0-0.8,0.2-1.4,0.5-1.8c0.3-0.4,0.9-0.6,1.6-0.6c0.7,0,1.2,0.2,1.6,0.6c0.3,0.4,0.5,1,0.5,1.7L152.6,29L152.6,29z M151.5,28
		c0-0.5-0.1-0.9-0.3-1.1c-0.2-0.2-0.4-0.4-0.8-0.4c-0.4,0-0.6,0.1-0.8,0.3s-0.3,0.6-0.3,1.1v1.2c0,0.5,0.1,0.9,0.3,1.1
		s0.4,0.4,0.8,0.4c0.3,0,0.6-0.1,0.8-0.3c0.2-0.2,0.3-0.6,0.3-1.1L151.5,28L151.5,28z"/>
	<path class="st0" d="M158.2,29.4h0.8v0.7h-0.8v1.2h-1.1v-1.2h-2.8l0-0.5l2.8-3.7h1.1L158.2,29.4L158.2,29.4z M155.5,29.4h1.7v-2.3
		l-0.1,0.1L155.5,29.4z"/>
</g>
<g id="Thumb_Up_Outline_Symbol_2_">
	<path class="st0" d="M13,0C4.1,0,0,2.6,0,2.6v20.5C0,31,13,34.2,13,34.2s13-3.1,13-11.1V2.6C26,2.6,21.8,0,13,0z M23.6,22.4
		c0,6.6-10.6,9.4-10.6,9.4S2.4,29,2.4,22.4V4.7c0,0,3.7-2.4,10.6-2.4s10.6,2.4,10.6,2.4L23.6,22.4L23.6,22.4z"/>
	<g>
		<path class="st0" d="M13,16.5c0,0,0,11.8,0,13c3.4,0,9.4-4.1,9.4-7.6v-5.4C22.4,16.5,13,16.5,13,16.5z"/>
		<path class="st0" d="M3.5,6.4v10.2H13V4C7.2,4,3.5,6.4,3.5,6.4z"/>
	</g>
</g>
</svg>
